0
SECTION
2
HEADER
9
$INSUNITS
70
4
9
$ACADVER
1
AC1014
9
$HANDSEED
5
FFFF
0
ENDSEC
0
SECTION
2
TABLES
0
TABLE
2
VPORT
5
8
100
AcDbSymbolTable
0
ENDTAB
0
TABLE
2
LTYPE
5
5
100
AcDbSymbolTable
0
LTYPE
5
14
100
AcDbSymbolTableRecord
100
AcDbLinetypeTableRecord
2
BYBLOCK
70
0
0
LTYPE
5
15
100
AcDbSymbolTableRecord
100
AcDbLinetypeTableRecord
2
BYLAYER
70
0
0
ENDTAB
0
TABLE
2
LAYER
5
2
100
AcDbSymbolTable
70
2
0
LAYER
5
50
100
AcDbSymbolTableRecord
100
AcDbLayerTableRecord
2
0
70
0
6
CONTINUOUS
0
ENDTAB
0
TABLE
2
STYLE
5
3
100
AcDbSymbolTable
70
1
0
STYLE
5
11
100
AcDbSymbolTableRecord
100
AcDbTextStyleTableRecord
2
STANDARD
70
0
0
ENDTAB
0
TABLE
2
VIEW
5
6
100
AcDbSymbolTable
70
0
0
ENDTAB
0
TABLE
2
UCS
5
7
100
AcDbSymbolTable
70
0
0
ENDTAB
0
TABLE
2
APPID
5
9
100
AcDbSymbolTable
70
2
0
APPID
5
12
100
AcDbSymbolTableRecord
100
AcDbRegAppTableRecord
2
ACAD
70
0
0
ENDTAB
0
TABLE
2
DIMSTYLE
5
A
100
AcDbSymbolTable
70
1
0
ENDTAB
0
TABLE
2
BLOCK_RECORD
5
1
100
AcDbSymbolTable
70
1
0
BLOCK_RECORD
5
1F
100
AcDbSymbolTableRecord
100
AcDbBlockTableRecord
2
*MODEL_SPACE
0
BLOCK_RECORD
5
1B
100
AcDbSymbolTableRecord
100
AcDbBlockTableRecord
2
*PAPER_SPACE
0
ENDTAB
0
ENDSEC
0
SECTION
2
BLOCKS
0
BLOCK
5
20
100
AcDbEntity
100
AcDbBlockBegin
2
*MODEL_SPACE
0
ENDBLK
5
21
100
AcDbEntity
100
AcDbBlockEnd
0
BLOCK
5
1C
100
AcDbEntity
100
AcDbBlockBegin
2
*PAPER_SPACE
0
ENDBLK
5
1D
100
AcDbEntity
100
AcDbBlockEnd
0
ENDSEC
0
SECTION
2
ENTITIES
0
LWPOLYLINE
5
100
100
AcDbEntity
8
0
100
AcDbPolyline
90
4
70
1
43
0.0
10
-1318.8413361587479
20
-49.4269556340004
10
-1445.2033361587478
20
-49.426955634000436
10
-1445.2033361587478
20
-405.02695563400044
10
-1318.8413361587479
20
-405.02695563400039
0
LWPOLYLINE
5
101
100
AcDbEntity
8
0
100
AcDbPolyline
90
4
70
1
43
0.0
10
-641.35411767427104
20
-49.8454055600061
10
-514.99211767427096
20
-49.8454055600061
10
-514.99211767427096
20
-405.44540556000612
10
-641.35411767427104
20
-405.44540556000612
0
LWPOLYLINE
5
102
100
AcDbEntity
8
0
100
AcDbPolyline
90
4
70
1
43
0.0
10
-585.75190921629564
20
-358.36159227659027
10
-570.59232613224617
20
-358.36159227659027
10
-570.59232613224617
20
-369.04540556000609
10
-585.75190921629564
20
-369.04540556000609
0
LWPOLYLINE
5
103
100
AcDbEntity
8
0
100
AcDbPolyline
90
8
70
1
43
0.0
10
345.17696876788818
20
-507.13178763229257
10
228.26545850493557
20
-538.71158711806788
10
123.26624643433797
20
-478.37295577727701
10
91.68644694856242
20
-361.46144551432423
10
152.02507828935353
20
-256.46223344372652
10
268.93658855230615
20
-224.88243395795098
10
373.9358006229038
20
-285.22106529874219
10
405.51560010867934
20
-402.13257556169481
0
LWPOLYLINE
5
104
100
AcDbEntity
8
0
100
AcDbPolyline
90
8
70
1
43
0.0
10
275.86797974283672
20
-990.98647945569132
10
230.21047816784645
20
-878.82152272919848
10
277.23835070493402
20
-767.22419224068801
10
389.40330743142653
20
-721.56669066569793
10
501.00063791993693
20
-768.59456320278559
10
546.65813949492724
20
-880.75951992927821
10
499.63026695783947
20
-992.35685041778834
10
387.46531023134662
20
-1038.0143519927785
0
CIRCLE
5
105
100
AcDbEntity
8
0
100
AcDbCircle
10
388.4343088313866
20
-879.79052132923835
30
0
40
5
0
LINE
5
106
100
AcDbEntity
8
0
100
AcDbLine
10
-171.13994649394783
20
-970.26594394152994
30
0
11
-171.13994649394783
21
-900.41594394152992
31
0
0
LINE
5
107
100
AcDbEntity
8
0
100
AcDbLine
10
-171.13994649394783
20
-900.41594394152992
30
0
11
-50.03838936913354
21
-900.41594394152992
31
0
0
LINE
5
108
100
AcDbEntity
8
0
100
AcDbLine
10
-50.03838936913354
20
-900.41594394152992
30
0
11
-50.03838936913354
21
-970.26594394152994
31
0
0
LINE
5
109
100
AcDbEntity
8
0
100
AcDbLine
10
-50.03838936913354
20
-970.26594394152994
30
0
11
-171.13994649394783
21
-970.26594394152994
31
0
0
LWPOLYLINE
5
110
100
AcDbEntity
8
0
100
AcDbPolyline
90
4
70
1
43
0.0
10
-148.37020261501698
20
-955.65669775632637
10
-98.635612923689436
20
-955.65669775632637
10
-98.635612923689436
20
-925.81594394152989
10
-148.37020261501698
20
-925.81594394152989
0
CIRCLE
5
111
100
AcDbEntity
8
0
100
AcDbCircle
10
-84.635612923689436
20
-940.73632084892824
30
0
40
4.5000000000000213
0
LWPOLYLINE
5
112
100
AcDbEntity
8
0
100
AcDbPolyline
90
4
70
1
43
0.0
10
-573.67211767427091
20
-381.74540556000613
10
-582.67211767427102
20
-381.74540556000613
10
-582.67211767427102
20
-392.74540556000608
10
-573.67211767427091
20
-392.74540556000608
0
LINE
5
113
100
AcDbEntity
8
0
100
AcDbLine
10
-641.35411767427104
20
-388.90966278328347
30
0
11
-514.99211767427096
21
-388.90966278328347
31
0
0
LINE
5
114
100
AcDbEntity
8
0
100
AcDbLine
10
-578.17211767427102
20
-381.74540556000613
30
0
11
-578.17211767427102
21
-392.74540556000608
31
0
0
LWPOLYLINE
5
115
100
AcDbEntity
8
0
100
AcDbPolyline
90
4
70
1
43
0.0
10
-176.19649368761699
20
-1062.8365658168032
10
-55.094493687617003
20
-1062.8365658168032
10
-55.094493687617003
20
-1132.6865658168031
10
-176.19649368761699
20
-1132.6865658168031
0
LWPOLYLINE
5
116
100
AcDbEntity
8
0
100
AcDbPolyline
90
4
70
1
43
0.0
10
-111.14449368761697
20
-1108.986565816803
10
-120.14449368761696
20
-1108.986565816803
10
-120.14449368761696
20
-1119.986565816803
10
-111.14449368761697
20
-1119.986565816803
0
LINE
5
117
100
AcDbEntity
8
0
100
AcDbLine
10
-115.644493687617
20
-1108.986565816803
30
0
11
-115.644493687617
21
-1119.986565816803
31
0
0
LINE
5
118
100
AcDbEntity
8
0
100
AcDbLine
10
-578.17211767427102
20
-358.36159227659027
30
0
11
-578.17211767427102
21
-369.04540556000609
31
0
0
LWPOLYLINE
5
119
100
AcDbEntity
8
0
100
AcDbPolyline
90
4
70
1
43
0.0
10
-123.22428522964174
20
-1085.602752533387
10
-108.06470214559226
20
-1085.602752533387
10
-108.06470214559226
20
-1096.286565816803
10
-123.22428522964174
20
-1096.286565816803
0
LINE
5
120
100
AcDbEntity
8
0
100
AcDbLine
10
-115.644493687617
20
-1085.602752533387
30
0
11
-115.644493687617
21
-1096.286565816803
31
0
0
LWPOLYLINE
5
121
100
AcDbEntity
8
0
100
AcDbPolyline
90
8
70
1
43
0.0
10
-1156.2559739412368
20
-1024.8683961142203
10
-1282.6179739412369
20
-1024.8683961142203
10
-1282.6179739412369
20
-1101.0683961142204
10
-1269.9179739412368
20
-1101.0683961142204
10
-1269.9179739412368
20
-1043.9183961142203
10
-1168.9559739412366
20
-1043.9183961142203
10
-1168.9559739412366
20
-1101.0683961142204
10
-1156.2559739412368
20
-1101.0683961142204
0
LWPOLYLINE
5
122
100
AcDbEntity
8
0
100
AcDbPolyline
90
4
70
1
43
0.0
10
-1158.5580985566021
20
-749.15679601907891
10
-1284.9200985566019
20
-749.15679601907891
10
-1284.9200985566019
20
-825.35679601907896
10
-1158.5580985566021
20
-825.35679601907896
0
LWPOLYLINE
5
123
100
AcDbEntity
8
0
100
AcDbPolyline
90
8
70
1
43
0.0
10
413.84230693952873
20
-130.93039277080749
10
295.2392291015413
20
-155.40276628485344
10
194.06960722919251
20
-88.842306939528726
10
169.59723371514653
20
29.760770898458677
10
236.1576930604713
20
130.93039277080752
10
354.76077089845876
20
155.40276628485347
10
455.93039277080749
20
88.842306939528697
10
480.40276628485344
20
-29.760770898458659
0
LWPOLYLINE
5
124
100
AcDbEntity
8
0
100
AcDbPolyline
90
4
70
1
43
0.0
10
336.05886596456406
20
-25.162722163922648
10
393.10595180276152
20
-109.23525036052993
10
401.12712986974952
20
-103.79251129312793
10
344.08004403155201
20
-19.71998309652065
0
LWPOLYLINE
5
125
100
AcDbEntity
8
0
100
AcDbPolyline
90
4
70
1
43
0.0
10
324.54749474761451
20
-27.435762292482199
10
315.02706764055358
20
-25.612530590999079
10
295.91719408435586
20
-125.39916663343782
10
305.43762119141672
20
-127.22239833492094
0
LWPOLYLINE
5
126
100
AcDbEntity
8
0
100
AcDbPolyline
90
4
70
1
43
0.0
10
305.28001690347935
20
-19.080044031552031
10
299.83727783607731
20
-11.058865964564042
10
215.76474963947007
20
-68.10595180276151
10
221.20748870687206
20
-76.127129869749496
0
LWPOLYLINE
5
127
100
AcDbEntity
8
0
100
AcDbPolyline
90
4
70
1
43
0.0
10
297.5642377075178
20
0.45250525238548667
10
299.38746940900091
20
9.972932359446391
10
199.6008333665622
20
29.082805915644123
10
197.77760166507906
20
19.562378808583212
0
LWPOLYLINE
5
128
100
AcDbEntity
8
0
100
AcDbPolyline
90
4
70
1
43
0.0
10
305.91995596844799
20
19.719983096520654
10
313.94113403543594
20
25.162722163922648
10
256.89404819723848
20
109.23525036052993
10
248.87287013025048
20
103.79251129312794
0
LWPOLYLINE
5
129
100
AcDbEntity
8
0
100
AcDbPolyline
90
4
70
1
43
0.0
10
325.45250525238549
20
27.435762292482202
10
334.97293235944642
20
25.612530590999096
10
354.08280591564414
20
125.39916663343786
10
344.56237880858328
20
127.22239833492094
0
LWPOLYLINE
5
130
100
AcDbEntity
8
0
100
AcDbPolyline
90
4
70
1
43
0.0
10
344.71998309652065
20
19.080044031552042
10
350.16272216392269
20
11.05886596456406
10
434.2352503605299
20
68.105951802761581
10
428.79251129312792
20
76.127129869749567
0
LWPOLYLINE
5
131
100
AcDbEntity
8
0
100
AcDbPolyline
90
4
70
1
43
0.0
10
352.4357622924822
20
-0.45250525238548445
10
350.61253059099909
20
-9.9729323594463892
10
450.3991666334378
20
-29.082805915644112
10
452.22239833492097
20
-19.562378808583205
0
CIRCLE
5
132
100
AcDbEntity
8
0
100
AcDbCircle
10
209.13056659241107
20
-79.3888796057918
30
0
40
7.9397907338707263
0
LWPOLYLINE
5
133
100
AcDbEntity
8
0
100
AcDbPolyline
90
8
70
1
43
0.0
10
629.14881210677163
20
-531.89539803056857
10
528.71064528200225
20
-474.17780757370031
10
498.50263603606163
20
-362.34479911616035
10
556.22022649293012
20
-261.90663229139085
10
668.05323495047003
20
-231.69862304545029
10
768.49140177523952
20
-289.41621350231884
10
798.69941102118003
20
-401.24922195985874
10
740.98182056431153
20
-501.68738878462818
0
LWPOLYLINE
5
134
100
AcDbEntity
8
0
100
AcDbPolyline
90
8
70
1
43
0.0
10
-1072.8704111223224
20
-752.67495256478571
10
-946.50841112232229
20
-752.67495256478571
10
-946.50841112232229
20
-1108.2749525647857
10
-1072.8704111223224
20
-1108.2749525647857
10
-1072.8704111223224
20
-1032.0749525647857
10
-973.87541112232225
20
-1032.0749525647857
10
-973.87541112232225
20
-828.87495256478564
10
-1072.8704111223224
20
-828.87495256478564
0
LWPOLYLINE
5
135
100
AcDbEntity
8
0
100
AcDbPolyline
90
8
70
1
43
0.0
10
-1470.1854987151398
20
-752.67495256478571
10
-1470.1854987151398
20
-1108.2749525647857
10
-1343.8234987151397
20
-1108.2749525647857
10
-1343.8234987151397
20
-1032.0749525647857
10
-1442.8184987151399
20
-1032.0749525647857
10
-1442.8184987151399
20
-828.87495256478564
10
-1343.8234987151397
20
-828.87495256478564
10
-1343.8234987151397
20
-752.67495256478571
0
LWPOLYLINE
5
136
100
AcDbEntity
8
0
100
AcDbPolyline
90
4
70
1
43
0.0
10
-652.26288795654591
20
-901.40141142077198
10
-652.26288795654591
20
-971.251411420772
10
-773.364887956546
20
-971.251411420772
10
-773.364887956546
20
-901.40141142077198
0
LWPOLYLINE
5
137
100
AcDbEntity
8
0
100
AcDbPolyline
90
4
70
1
43
0.0
10
-452.26288795654597
20
-901.40141142077198
10
-452.26288795654597
20
-971.251411420772
10
-573.364887956546
20
-971.251411420772
10
-573.364887956546
20
-901.40141142077198
0
LWPOLYLINE
5
138
100
AcDbEntity
8
0
100
AcDbPolyline
90
4
70
1
43
0.0
10
-252.26288795654597
20
-901.40141142077198
10
-252.26288795654597
20
-971.251411420772
10
-373.36488795654594
20
-971.251411420772
10
-373.36488795654594
20
-901.40141142077198
0
LWPOLYLINE
5
139
100
AcDbEntity
8
0
100
AcDbPolyline
90
4
70
1
43
0.0
10
-657.96571657913182
20
-1071.2386809849213
10
-657.96571657913182
20
-1141.0886809849212
10
-779.06771657913168
20
-1141.0886809849212
10
-779.06771657913168
20
-1071.2386809849213
0
LWPOLYLINE
5
140
100
AcDbEntity
8
0
100
AcDbPolyline
90
4
70
1
43
0.0
10
-449.05084516836394
20
-1071.2386809849213
10
-449.05084516836394
20
-1141.0886809849214
10
-570.15284516836391
20
-1141.0886809849214
10
-570.15284516836391
20
-1071.2386809849213
0
LWPOLYLINE
5
141
100
AcDbEntity
8
0
100
AcDbPolyline
90
4
70
1
43
0.0
10
-252.15985124886339
20
-1071.2386809849213
10
-252.15985124886339
20
-1141.0886809849214
10
-373.26185124886337
20
-1141.0886809849214
10
-373.26185124886337
20
-1071.2386809849213
0
LWPOLYLINE
5
142
100
AcDbEntity
8
0
100
AcDbPolyline
90
4
70
1
43
0.0
10
-1118.8413361587479
20
-405.02695563400039
10
-1118.8413361587479
20
-49.4269556340004
10
-1245.2033361587478
20
-49.426955634000436
10
-1245.2033361587478
20
-405.02695563400044
0
LWPOLYLINE
5
143
100
AcDbEntity
8
0
100
AcDbPolyline
90
4
70
1
43
0.0
10
-918.84133615874794
20
-405.02695563400039
10
-918.84133615874794
20
-49.4269556340004
10
-1045.2033361587478
20
-49.426955634000436
10
-1045.2033361587478
20
-405.02695563400044
0
LWPOLYLINE
5
144
100
AcDbEntity
8
0
100
AcDbPolyline
90
4
70
1
43
0.0
10
-718.84133615874794
20
-405.02695563400039
10
-718.84133615874794
20
-49.4269556340004
10
-845.2033361587479
20
-49.426955634000436
10
-845.2033361587479
20
-405.02695563400044
0
ENDSEC
0
SECTION
2
OBJECTS
0
DICTIONARY
5
C
100
AcDbDictionary
3
ACAD_GROUP
350
D
3
ACAD_MLINESTYLE
350
17
0
DICTIONARY
5
D
100
AcDbDictionary
0
DICTIONARY
5
1A
330
C
100
AcDbDictionary
0
DICTIONARY
5
17
100
AcDbDictionary
0
ENDSEC
0
EOF
