M48
;GenerationSoftware,Autodesk,EAGLE,9.4.1*%
;CreationDate,2019-08-21T21:24:16Z*%
FMAT,2
ICI,OFF
METRIC,TZ,000.000
T11C0.711
T10C0.800
T9C0.813
T8C0.914
T7C1.000
T6C1.016
T5C1.118
T4C1.300
T3C1.320
T2C1.500
T1C3.302
%
G90
M71
T1
X14030Y8454
T2
X128450Y9650
X101100Y37000
X129100Y47250
X131400Y43800
X128800Y39606
X127000Y45624
X124100Y45574
X124600Y40756
X74600Y49450
X65750Y34750
X59300Y40050
X82650Y79250
X131800Y40900
X132250Y49900
X55450Y9700
X72400Y9300
T3
X134680Y3490
X132140Y3490
X129600Y3490
X3740Y2070
X6280Y2070
X8820Y2070
T4
X64460Y3810
X115200Y2890
X58030Y3810
X53030Y3810
X97400Y3810
X92400Y3810
X87400Y3810
X80890Y3810
X75890Y3810
X120200Y2890
X108830Y3810
X103830Y3810
X69460Y3810
X15240Y3730
X20240Y3730
T5
X11490Y23440
X14030Y23440
X16570Y23440
T6
X135500Y43180
X135500Y45720
X135500Y48260
X135500Y50800
X135500Y53340
X135500Y55880
X135500Y58420
X135500Y20320
X135500Y40640
X78010Y82140
X75470Y82140
X72930Y82140
X70390Y82140
X67850Y82140
X135500Y22860
X135500Y25400
X135500Y27940
X135500Y30480
X135500Y33020
X135500Y35560
X135500Y38100
X135500Y80010
X135500Y77470
X135500Y74930
X135500Y72390
X135500Y69850
X135500Y67310
X135500Y64770
X135500Y62230
X40250Y63500
X37710Y63500
X35170Y63500
X32630Y63500
T7
X32249Y10239
X43298Y10239
X90850Y25410
X90850Y27950
X90850Y22870
X90850Y30490
X90850Y33030
X90850Y35570
X90850Y38110
X90850Y40650
X90850Y43190
X90850Y45730
X90850Y48270
X90850Y50810
X90850Y53350
X90850Y55890
X90850Y58430
X90850Y60970
X90850Y63510
X90850Y66050
X90850Y68590
X68200Y22870
X68200Y25410
X68200Y27950
X68200Y30490
X68200Y33030
X68200Y35570
X68200Y55890
X68200Y58430
X68200Y60970
X68200Y63510
X68200Y66050
X68200Y68590
X68200Y53350
X68200Y50810
X68200Y38110
X68200Y40650
X68200Y43190
X68200Y45730
X68200Y48270
T8
X78110Y16370
X85730Y16370
X51750Y48130
X59370Y48130
X37070Y38560
X29450Y38560
X25850Y59610
X18230Y59610
X35110Y66810
X42730Y66810
T9
X78420Y74210
X38980Y50800
X97520Y8790
X87360Y8790
X68260Y74210
X119440Y18970
X119440Y8810
X23740Y43180
X26280Y43180
X38980Y43180
X41520Y43180
X28820Y43180
X31360Y43180
X36440Y43180
X33900Y43180
X41520Y50800
X48910Y27780
X36440Y50800
X33900Y50800
X31360Y50800
X28820Y50800
X26280Y50800
X23740Y50800
X48910Y37940
T10
X37049Y7239
X43298Y4239
X48098Y7239
X32249Y4239
T11
X24060Y31279
X24060Y29501
X50400Y15751
X50400Y17529
M30