M48
;GenerationSoftware,Autodesk,EAGLE,9.3.0*%
;CreationDate,2019-02-26T04:35:44Z*%
FMAT,2
ICI,OFF
METRIC,TZ,000.000
T10C0.711
T9C0.800
T8C0.813
T7C1.000
T6C1.016
T5C1.118
T4C1.199
T3C1.200
T2C1.320
T1C3.302
%
G90
M71
T1
X74930Y25654
T2
X35560Y80010
X35560Y82550
X35560Y85090
X25400Y80010
X25400Y82550
X25400Y85090
T3
X57150Y95250
X60650Y95250
X99060Y58730
X99060Y62230
X50180Y95250
X33020Y95250
X36520Y95250
X77470Y95250
X80970Y95250
X99060Y77470
X99060Y73970
X46680Y95250
X43180Y95250
X99060Y44760
X99060Y48260
X70810Y95250
X67310Y95250
T4
X34315Y43561
X58674Y63297
X16002Y39827
X25781Y22581
T5
X77470Y40640
X74930Y40640
X72390Y40640
T6
X13970Y74930
X13970Y72390
X13970Y69850
X13970Y67310
X13970Y64770
X13970Y62230
X13970Y57150
X13970Y54610
X13970Y52070
X13970Y24130
X13970Y26670
X13970Y29210
X13970Y31750
X13970Y34290
X13970Y36830
X13970Y39370
X13970Y41910
X13970Y49530
X13970Y77470
X13970Y80010
X13970Y82550
X13970Y85090
X13970Y87630
X13970Y59690
X24130Y95250
X21590Y95250
X13970Y95250
X16510Y95250
X19050Y95250
T7
X24330Y69840
X46980Y39360
X24330Y67300
X24330Y64760
X93520Y91440
X24330Y62220
X24330Y59680
X24330Y57140
X24330Y54600
X24330Y52060
X24330Y49520
X93520Y29210
X24330Y46980
X24330Y44440
X24330Y41900
X24330Y39360
X24330Y36820
X24330Y34280
X24330Y31740
X24330Y29200
X24330Y26660
X24330Y24120
X46980Y69840
X46980Y67300
X46980Y64760
X46980Y62220
X46980Y24120
X46980Y26660
X46980Y29200
X46980Y31740
X46980Y34280
X46980Y36820
X46980Y59680
X46980Y41900
X46980Y44440
X46980Y46980
X46980Y49520
X46980Y52060
X46980Y54600
X46980Y57140
T8
X71120Y76200
X71120Y73660
X71120Y68580
X71120Y71120
X78740Y63500
X78740Y66040
X78740Y68580
X78740Y71120
X78740Y73660
X78740Y76200
X78740Y78740
X78740Y81280
X71120Y66040
X71120Y78740
X71120Y81280
X71120Y63500
T9
X96520Y34010
X99520Y29210
X96520Y96240
X99520Y91440
T10
X75819Y85090
X48641Y82550
X74041Y85090
X50419Y82550
M30