%
M48
M72
T01C0.0280
T02C0.0315
T03C0.0320
T04C0.0394
T05C0.0400
T06C0.0440
T07C0.0472
T08C0.0472
T09C0.0520
T10C0.1300
%
T01
X29150Y33500
X29850Y33500
X19850Y32500
X19150Y32500
T02
X38000Y37890
X39181Y36000
X38000Y13390
X39181Y11500
T03
X28000Y32000
X28000Y31000
X28000Y26000
X28000Y25000
X28000Y30000
X28000Y29000
X28000Y27000
X28000Y28000
X31000Y25000
X31000Y26000
X31000Y27000
X31000Y28000
X31000Y29000
X31000Y30000
X31000Y31000
X31000Y32000
T04
X36819Y36000
X36819Y11500
X18496Y9496
X18496Y10496
X18496Y11496
X18496Y12496
X18496Y13496
X18496Y14496
X18496Y15496
X18496Y16496
X18496Y17496
X18496Y18496
X18496Y19496
X18496Y20496
X18496Y21496
X18496Y22496
X18496Y23496
X18496Y24496
X18496Y25496
X18496Y26496
X18496Y27496
X9579Y9496
X9579Y10496
X9579Y11496
X9579Y12496
X9579Y13496
X9579Y14496
X9579Y15496
X9579Y16496
X9579Y17496
X9579Y18496
X9579Y19496
X9579Y20496
X9579Y21496
X9579Y22496
X9579Y23496
X9579Y24496
X9579Y25496
X9579Y26496
X9579Y27496
T05
X5500Y9500
X5500Y10500
X5500Y11500
X5500Y12500
X5500Y13500
X5500Y14500
X5500Y15500
X5500Y16500
X5500Y37500
X6500Y37500
X7500Y37500
X8500Y37500
X9500Y37500
X5500Y19500
X5500Y20500
X5500Y21500
X5500Y22500
X5500Y23500
X5500Y24500
X5500Y25500
X5500Y26500
X5500Y27500
X5500Y28500
X5500Y29500
X5500Y30500
X5500Y31500
X5500Y32500
X5500Y33500
X5500Y34500
T06
X30500Y16000
X29500Y16000
X28500Y16000
T07
X13510Y17150
X10150Y8890
X6300Y15680
X23100Y24920
T08
X13000Y37500
X14378Y37500
X30500Y37500
X31878Y37500
X39000Y30500
X39000Y29122
X26500Y37500
X27878Y37500
X39000Y19000
X39000Y17622
X17000Y37500
X18378Y37500
X19756Y37500
X39000Y24500
X39000Y23122
X22500Y37500
X23878Y37500
T09
X10000Y33500
X10000Y32500
X10000Y31500
X14000Y33500
X14000Y32500
X14000Y31500
T10
X29500Y10100
M30
