M48
;GenerationSoftware,Autodesk,EAGLE,9.3.0*%
;CreationDate,2019-03-03T23:57:43Z*%
FMAT,2
ICI,OFF
METRIC,TZ,000.000
T11C0.350
T10C0.711
T9C0.800
T8C0.813
T7C1.000
T6C1.016
T5C1.118
T4C1.199
T3C1.300
T2C1.320
T1C3.302
%
G90
M71
T1
X52070Y29464
T2
X71120Y64770
X71120Y67310
X71120Y69850
X63500Y64770
X63500Y67310
X63500Y69850
T3
X83820Y59610
X83820Y54610
X83820Y76120
X83820Y71120
X58500Y80010
X63500Y80010
X46990Y80010
X41990Y80010
X48260Y19050
X53260Y19050
X83820Y33020
X83820Y38020
X83820Y43020
X62230Y19050
X67230Y19050
X30480Y80010
X25480Y80010
T4
X59690Y30480
X30734Y73914
X44831Y49530
X36830Y69850
X47625Y28575
X15250Y27930
X10160Y57150
X15240Y55880
X10541Y62611
X8890Y30480
X22860Y39370
X20574Y79502
X36840Y35550
X32893Y40640
X44831Y61214
X44450Y73660
X78232Y38100
X38100Y21590
X30988Y29718
X22235Y55870
X29210Y27940
X22235Y53330
X33909Y23241
X77470Y60960
X44460Y25390
X45466Y35560
X67310Y58166
X49657Y33782
T5
X54610Y44450
X52070Y44450
X49530Y44450
T6
X33020Y19050
X7620Y41910
X7620Y72390
X7620Y69850
X7620Y67310
X7620Y64770
X7620Y62230
X7620Y59690
X7620Y57150
X7620Y54610
X7620Y52070
X7620Y49530
X7620Y46990
X7620Y44450
X7620Y39370
X7620Y36830
X7620Y34290
X16510Y81280
X13970Y81280
X20320Y19050
X22860Y19050
X25400Y19050
X27940Y19050
X30480Y19050
X11430Y81280
X35560Y19050
X38100Y19050
X8890Y81280
X6350Y81280
T7
X17980Y71110
X40630Y27930
X14430Y19050
X17980Y68570
X17980Y66030
X17980Y63490
X17980Y60950
X17980Y58410
X17980Y55870
X17980Y53330
X75740Y20320
X17980Y50790
X17980Y48250
X17980Y45710
X17980Y43170
X17980Y40630
X17980Y38090
X17980Y35550
X17980Y33010
X17980Y30470
X17980Y27930
X17980Y25390
X40630Y71110
X40630Y68570
X40630Y66030
X40630Y63490
X40630Y60950
X40630Y58410
X40630Y55870
X40630Y53330
X40630Y50790
X40630Y48250
X40630Y45710
X40630Y43170
X40630Y40630
X40630Y38090
X40630Y25390
X40630Y35550
X40630Y30470
X40630Y33010
T8
X48260Y67310
X48260Y54610
X48260Y52070
X48260Y64770
X48260Y62230
X48260Y57150
X48260Y59690
X55880Y52070
X55880Y54610
X55880Y57150
X55880Y59690
X55880Y62230
X55880Y64770
X55880Y67310
X55880Y69850
X48260Y69850
T9
X8430Y19050
X78740Y25120
X11430Y14250
X81740Y20320
T10
X72009Y57150
X64389Y57150
X62611Y57150
X70231Y57150
T11
X36830Y80010
X53340Y80010
X72390Y76200
X82550Y48260
X11430Y26670
X11430Y72390
X58801Y51435
X83820Y26670
X29210Y60960
X8890Y77470
M30